<svg id="visual" viewBox="0 0 2400 1400" width="2400" height="1400" xmlns="http://www.w3.org/2000/svg" xmlns:xlink="http://www.w3.org/1999/xlink" version="1.1"><path d="M1040 0L965 33.3C890 66.7 740 133.3 730.5 200C721 266.7 852 333.3 873 400C894 466.7 805 533.3 794.3 600C783.7 666.7 851.3 733.3 884.7 800C918 866.7 917 933.3 861.2 1000C805.3 1066.7 694.7 1133.3 707.2 1200C719.7 1266.7 855.3 1333.3 923.2 1366.7L991 1400L0 1400L0 1366.7C0 1333.3 0 1266.7 0 1200C0 1133.3 0 1066.7 0 1000C0 933.3 0 866.7 0 800C0 733.3 0 666.7 0 600C0 533.3 0 466.7 0 400C0 333.3 0 266.7 0 200C0 133.3 0 66.7 0 33.3L0 0Z" fill="#b18ffc"></path><path d="M420 0L399.8 33.3C379.7 66.7 339.3 133.3 368.7 200C398 266.7 497 333.3 529.3 400C561.7 466.7 527.3 533.3 478.2 600C429 666.7 365 733.3 387.2 800C409.3 866.7 517.7 933.3 537.2 1000C556.7 1066.7 487.3 1133.3 451.7 1200C416 1266.7 414 1333.3 413 1366.7L412 1400L0 1400L0 1366.7C0 1333.3 0 1266.7 0 1200C0 1133.3 0 1066.7 0 1000C0 933.3 0 866.7 0 800C0 733.3 0 666.7 0 600C0 533.3 0 466.7 0 400C0 333.3 0 266.7 0 200C0 133.3 0 66.7 0 33.3L0 0Z" fill="#653dbb"></path></svg>