<svg id="visual" viewBox="0 0 2400 1400" width="2400" height="1400" xmlns="http://www.w3.org/2000/svg" xmlns:xlink="http://www.w3.org/1999/xlink" version="1.1"><path d="M0 1222L12.8 1164.2C25.7 1106.3 51.3 990.7 77.2 974.3C103 958 129 1041 154.8 1089.2C180.7 1137.3 206.3 1150.7 232.2 1124C258 1097.3 284 1030.7 309.8 968C335.7 905.3 361.3 846.7 387.2 816.8C413 787 439 786 464.8 854.7C490.7 923.3 516.3 1061.7 542 1105.7C567.7 1149.7 593.3 1099.3 619.2 1053.3C645 1007.3 671 965.7 696.8 1015.8C722.7 1066 748.3 1208 774.2 1199.5C800 1191 826 1032 851.8 985.8C877.7 939.7 903.3 1006.3 929 1069.2C954.7 1132 980.3 1191 1006.2 1186C1032 1181 1058 1112 1083.8 1090.2C1109.7 1068.3 1135.3 1093.7 1161.2 1111.8C1187 1130 1213 1141 1238.8 1104.5C1264.7 1068 1290.3 984 1316.2 945.3C1342 906.7 1368 913.3 1393.8 932.3C1419.7 951.3 1445.3 982.7 1471 1042.3C1496.7 1102 1522.3 1190 1548.2 1219.5C1574 1249 1600 1220 1625.8 1206.5C1651.7 1193 1677.3 1195 1703.2 1123.3C1729 1051.7 1755 906.3 1780.8 914.5C1806.7 922.7 1832.3 1084.3 1858 1121.5C1883.7 1158.7 1909.3 1071.3 1935.2 1045.8C1961 1020.3 1987 1056.7 2012.8 1066.3C2038.7 1076 2064.3 1059 2090.2 1101C2116 1143 2142 1244 2167.8 1230.8C2193.7 1217.7 2219.3 1090.3 2245.2 1085.7C2271 1081 2297 1199 2322.8 1161.3C2348.7 1123.7 2374.3 930.3 2387.2 833.7L2400 737" fill="none" stroke-linecap="round" stroke-linejoin="miter" stroke="#8b5cf6" stroke-width="40"></path></svg>