<svg id="visual" viewBox="0 0 2400 1400" width="2400" height="1400" xmlns="http://www.w3.org/2000/svg" xmlns:xlink="http://www.w3.org/1999/xlink" version="1.1"><path d="M837 0L832.3 33.3C827.7 66.7 818.3 133.3 784.3 200C750.3 266.7 691.7 333.3 684.5 400C677.3 466.7 721.7 533.3 741.7 600C761.7 666.7 757.3 733.3 751.8 800C746.3 866.7 739.7 933.3 753.8 1000C768 1066.7 803 1133.3 788.2 1200C773.3 1266.7 708.7 1333.3 676.3 1366.7L644 1400L0 1400L0 1366.7C0 1333.3 0 1266.7 0 1200C0 1133.3 0 1066.7 0 1000C0 933.3 0 866.7 0 800C0 733.3 0 666.7 0 600C0 533.3 0 466.7 0 400C0 333.3 0 266.7 0 200C0 133.3 0 66.7 0 33.3L0 0Z" fill="#b18ffc"></path><path d="M657 0L663.5 33.3C670 66.7 683 133.3 707 200C731 266.7 766 333.3 779.2 400C792.3 466.7 783.7 533.3 736.2 600C688.7 666.7 602.3 733.3 578.8 800C555.3 866.7 594.7 933.3 645.8 1000C697 1066.7 760 1133.3 745.3 1200C730.7 1266.7 638.3 1333.3 592.2 1366.7L546 1400L0 1400L0 1366.7C0 1333.3 0 1266.7 0 1200C0 1133.3 0 1066.7 0 1000C0 933.3 0 866.7 0 800C0 733.3 0 666.7 0 600C0 533.3 0 466.7 0 400C0 333.3 0 266.7 0 200C0 133.3 0 66.7 0 33.3L0 0Z" fill="#9f76f9"></path><path d="M533 0L535.7 33.3C538.3 66.7 543.7 133.3 542 200C540.3 266.7 531.7 333.3 539.8 400C548 466.7 573 533.3 546.8 600C520.7 666.7 443.3 733.3 440 800C436.7 866.7 507.3 933.3 547 1000C586.7 1066.7 595.3 1133.3 593.8 1200C592.3 1266.7 580.7 1333.3 574.8 1366.7L569 1400L0 1400L0 1366.7C0 1333.3 0 1266.7 0 1200C0 1133.3 0 1066.7 0 1000C0 933.3 0 866.7 0 800C0 733.3 0 666.7 0 600C0 533.3 0 466.7 0 400C0 333.3 0 266.7 0 200C0 133.3 0 66.7 0 33.3L0 0Z" fill="#8b5cf6"></path><path d="M230 0L242.2 33.3C254.3 66.7 278.7 133.3 299.3 200C320 266.7 337 333.3 326.2 400C315.3 466.7 276.7 533.3 290.8 600C305 666.7 372 733.3 373.8 800C375.7 866.7 312.3 933.3 305 1000C297.7 1066.7 346.3 1133.3 365.2 1200C384 1266.7 373 1333.3 367.5 1366.7L362 1400L0 1400L0 1366.7C0 1333.3 0 1266.7 0 1200C0 1133.3 0 1066.7 0 1000C0 933.3 0 866.7 0 800C0 733.3 0 666.7 0 600C0 533.3 0 466.7 0 400C0 333.3 0 266.7 0 200C0 133.3 0 66.7 0 33.3L0 0Z" fill="#784cd8"></path><path d="M199 0L198 33.3C197 66.7 195 133.3 202 200C209 266.7 225 333.3 231.2 400C237.3 466.7 233.7 533.3 234.8 600C236 666.7 242 733.3 234.2 800C226.3 866.7 204.7 933.3 181.2 1000C157.7 1066.7 132.3 1133.3 138.2 1200C144 1266.7 181 1333.3 199.5 1366.7L218 1400L0 1400L0 1366.7C0 1333.3 0 1266.7 0 1200C0 1133.3 0 1066.7 0 1000C0 933.3 0 866.7 0 800C0 733.3 0 666.7 0 600C0 533.3 0 466.7 0 400C0 333.3 0 266.7 0 200C0 133.3 0 66.7 0 33.3L0 0Z" fill="#653dbb"></path></svg>